<svg xmlns="http://www.w3.org/2000/svg" viewBox="0 0 1024 1024" width="1024" height="1024">
  <g fill="#E8735A">
    <!-- Seg1: 355° → 125° -->
    <path d="M 781.9 490.8 A 278 278 0 0 1 345.5 742.7 A 38 38 0 0 1 389.1 680.5 A 202 202 0 0 0 706.2 497.4 A 38 38 0 0 1 781.9 490.8 Z"/>
    <!-- Seg2: 163° → 255° -->
    <path d="M 239.1 596.3 A 278 278 0 0 1 433 246.5 A 38 38 0 0 1 452.7 319.9 A 202 202 0 0 0 311.8 574.1 A 38 38 0 0 1 239.1 596.3 Z"/>
    <!-- Seg3: 290° → 317° -->
    <path d="M 600.1 253.8 A 278 278 0 0 1 708.3 325.4 A 38 38 0 0 1 652.7 377.2 A 202 202 0 0 0 574.1 325.2 A 38 38 0 0 1 600.1 253.8 Z"/>
    <circle cx="310.8" cy="656.1" r="28"/>
    <circle cx="515.5" cy="275.2" r="24"/>
    <circle cx="724.3" cy="417.4" r="26"/>
  </g>
</svg>
