<svg xmlns="http://www.w3.org/2000/svg" viewBox="0 0 1024 1024" width="1024" height="1024">
  <g fill="#6C5CE7">
    <!-- Seg1: 20° → 100° -->
    <path d="M 890.3 655.2 A 410 410 0 0 1 433.8 918.8 A 30 30 0 0 1 444.2 859.7 A 350 350 0 0 0 833.9 634.7 A 30 30 0 0 1 890.3 655.2 Z"/>
    <!-- Seg2: 145° → 240° -->
    <path d="M 169.1 750.2 A 410 410 0 0 1 300 159.9 A 30 30 0 0 1 330 211.9 A 350 350 0 0 0 218.3 715.8 A 30 30 0 0 1 169.1 750.2 Z"/>
    <!-- Seg3: 285° → 345° -->
    <path d="M 611.1 119 A 410 410 0 0 1 901 408.9 A 30 30 0 0 1 843.1 424.4 A 350 350 0 0 0 595.6 176.9 A 30 30 0 0 1 611.1 119 Z"/>
    <circle cx="300.8" cy="835.5" r="34"/>
    <circle cx="455.4" cy="138.3" r="30"/>
    <circle cx="884.6" cy="531.6" r="28"/>
  </g>
</svg>
